<svg xmlns="http://www.w3.org/2000/svg" width="165" height="115" viewBox="0 0 165 115" version="1.1">
	<path d="M 32.781 4.223 C 18.697 22.697, 4.936 58.322, 1 86.500 C -0.322 95.965, 0.032 114.183, 1.547 114.685 C 2.149 114.884, 4.409 107.729, 6.864 97.848 C 12.209 76.333, 19.182 57.372, 28.103 40.097 C 38.937 19.117, 49.971 5.424, 55.416 6.202 C 59.977 6.854, 58.265 18.275, 51.421 32.852 C 44.176 48.284, 31.810 63.817, 20.859 71.241 C 16.167 74.422, 14.910 76, 17.070 76 C 18.717 76, 25.855 70.789, 32.500 64.736 C 42.753 55.396, 55.088 36.386, 58.492 24.677 C 60.343 18.308, 60.680 8.524, 59.112 6.635 C 58.510 5.910, 58.256 5.077, 58.548 4.785 C 58.840 4.493, 57.220 4.594, 54.947 5.010 C 40.046 7.735, 16.488 52.418, 4.602 100.500 C 1.798 111.843, 1.243 109.372, 3.029 93.500 C 6.015 66.963, 21.512 22.885, 34.252 4.692 C 37.052 0.694, 35.780 0.288, 32.781 4.223 M 116.775 2.066 C 111.427 5.183, 99.024 27.990, 93.355 45.132 L 90.500 53.763 87.296 53.258 C 83.911 52.725, 82.559 53.766, 75.572 62.286 C 73.006 65.415, 68.961 67.866, 64 69.297 C 62.266 69.797, 59 68.338, 59 67.064 C 59 66.587, 60.547 65.285, 62.438 64.169 C 68.222 60.756, 70.872 53, 66.254 53 C 59.654 53, 53.681 66.100, 58.630 69.719 C 61.331 71.694, 64.216 71.268, 70.359 67.990 C 74.291 65.892, 76 65.390, 76 66.335 C 76 67.080, 76.885 68.491, 77.967 69.470 C 79.801 71.130, 81.264 71.158, 85 69.602 C 86.248 69.083, 86.500 70.129, 86.500 75.835 C 86.500 80.177, 87.003 83.299, 87.872 84.346 C 89.647 86.485, 94.873 86.466, 98.027 84.310 C 101.333 82.051, 108.750 74.170, 110.791 70.750 C 112.597 67.722, 114 67.176, 114 69.500 C 114 72.277, 118.005 71.037, 122.543 66.854 C 125.017 64.573, 127.227 62.894, 127.454 63.121 C 127.682 63.348, 125.700 68.027, 123.051 73.517 C 116.792 86.486, 115 91.952, 115 98.066 C 115 103.388, 116.717 105.310, 119.447 103.044 C 120.229 102.395, 123.466 96.608, 126.640 90.182 C 131.935 79.466, 135.724 72.545, 139.879 66 L 141.466 63.500 141.983 67 C 142.703 71.876, 145.840 72.225, 149.167 67.799 C 150.531 65.985, 151.949 63.681, 152.319 62.681 C 152.821 61.321, 153.559 61.043, 155.245 61.581 C 157.686 62.359, 158.116 62.394, 162.250 62.158 C 163.762 62.071, 165 61.640, 165 61.201 C 165 60.761, 163.436 60.584, 161.525 60.807 C 159.614 61.030, 156.739 60.756, 155.136 60.197 C 152.368 59.232, 152.134 59.376, 150.472 63.061 C 149.510 65.195, 147.895 67.690, 146.882 68.606 C 145.256 70.078, 144.973 70.094, 144.454 68.741 C 143.624 66.579, 145.666 59.629, 147.948 56.845 C 149.856 54.517, 149.881 54.514, 151.403 56.500 C 152.674 58.157, 152.942 58.221, 152.968 56.872 C 152.986 55.977, 152.304 54.667, 151.454 53.962 C 150.173 52.898, 149.451 53.020, 147.241 54.670 C 145.774 55.765, 143.882 57.806, 143.037 59.205 C 142.192 60.603, 140.099 63.717, 138.388 66.124 C 136.676 68.531, 131.793 77.250, 127.537 85.500 C 123.281 93.750, 119.337 100.950, 118.773 101.500 C 118.072 102.182, 117.922 100.673, 118.301 96.751 C 118.668 92.945, 120.707 86.679, 124.337 78.205 C 127.352 71.166, 129.972 64.544, 130.159 63.490 C 130.773 60.038, 127.262 60.717, 122.685 64.936 C 120.260 67.171, 117.786 69, 117.186 69 C 115.807 69, 118.038 61.212, 120.371 57.881 C 121.267 56.601, 122 54.902, 122 54.103 C 122 51.875, 117.437 56.556, 115.402 60.871 C 109.926 72.486, 96.086 86.398, 91.686 84.710 C 89.385 83.827, 88.550 77.519, 89.883 71.098 C 90.523 68.019, 91.111 64.957, 91.190 64.294 C 91.269 63.631, 91.656 63.288, 92.051 63.531 C 93.249 64.272, 100.733 55.483, 106.449 46.624 C 118.857 27.388, 126.683 7.150, 123.625 2.202 C 122.729 0.753, 119.150 0.682, 116.775 2.066 M 116.634 5.701 C 114.565 7.830, 110.166 15.132, 106.522 22.485 C 100.010 35.625, 90.965 60.298, 92.205 61.538 C 93.817 63.150, 106.182 46.115, 112.984 32.910 C 121.631 16.123, 125.098 3.506, 121.397 2.293 C 120.791 2.094, 118.647 3.628, 116.634 5.701 M 64.750 56.080 C 62.763 57.238, 59.562 62.896, 60.413 63.747 C 60.722 64.055, 62.555 62.631, 64.487 60.582 C 69.065 55.728, 69.196 53.491, 64.750 56.080 M 83.531 57.378 C 80.492 60.417, 78.205 67.605, 79.776 69.176 C 81.887 71.287, 86.588 68.317, 87.861 64.070 C 90.411 55.558, 88.423 52.486, 83.531 57.378" stroke="none" fill="#000000" fill-rule="evenodd"/>
</svg>